<svg xmlns="http://www.w3.org/2000/svg" width="601.219" height="587.651" viewBox="0 0 601.219 587.651"><defs><style>.a,.b,.c,.i{fill:none;stroke-linecap:round;stroke-linejoin:round;}.a,.d,.k{stroke:#ff4165;}.a,.b,.c,.d,.h,.i,.k{stroke-width:6px;}.a,.b,.c{stroke-dasharray:0 13;}.b{stroke:#3094bf;}.c,.h{stroke:#707070;}.d,.g,.h,.k{fill:#fff;}.d,.h{stroke-miterlimit:10;}.e{fill:#40c5ff;}.f{fill:#23292a;}.i{stroke:#23292a;}.j{font-size:36px;font-family:Dosis-Bold, Dosis;font-weight:700;}</style></defs><g transform="translate(1.28 22.95)"><g transform="translate(1.78 -19.236)"><g transform="translate(0)"><line class="a" y2="411.996" transform="translate(274.981 100.518)"/><line class="a" x1="358.685" y2="202.695" transform="translate(95.549 205.08)"/><line class="a" x1="350.17" y1="217.079" transform="translate(99.803 197.888)"/><circle class="b" cx="229.342" cy="229.342" r="229.342" transform="translate(43.579 65.436)"/><circle class="c" cx="229.342" cy="229.342" r="229.342" transform="translate(43.579 65.436)"/><path class="d" d="M381.988,303.994A82.994,82.994,0,1,1,298.994,221a82.994,82.994,0,0,1,82.994,82.994Z" transform="translate(-25.789 -7.689)"/><path class="e" d="M293.924,284.269a14.882,14.882,0,1,0-22.3,10.042l3.614,10.193,7.1-8.373a14.891,14.891,0,0,0,11.587-11.863Z" transform="translate(-31.215 -12.808)"/><path class="e" d="M321.258,284.269a14.882,14.882,0,1,1,22.3,10.042l-3.614,10.193-7.1-8.373A14.873,14.873,0,0,1,321.258,284.269Z" transform="translate(-37.558 -12.808)"/><path class="e" d="M322.521,280.517a14.89,14.89,0,1,0-20.111,13.923l5.4,9.368,5.505-9.536a14.873,14.873,0,0,0,9.208-13.754Z" transform="translate(-34.39 -12.688)"/><path class="f" d="M283.879,359.58V344.929a14.544,14.544,0,1,0-29.079,0V359.58Z" transform="translate(-30.137 -19.908)"/><path class="g" d="M284.759,323.416a15.175,15.175,0,1,1-15.172-15.166A15.175,15.175,0,0,1,284.759,323.416Z" transform="translate(-30.094 -17.468)"/><path class="f" d="M281.078,324.089a11.339,11.339,0,1,1-11.33-11.339,11.339,11.339,0,0,1,11.33,11.339Z" transform="translate(-30.541 -17.972)"/><path class="f" d="M321.851,359.626V344.975a14.535,14.535,0,0,0-29.071,0v14.651Z" transform="translate(-34.394 -19.955)"/><path class="g" d="M322.729,323.416a15.175,15.175,0,1,1-15.172-15.166A15.175,15.175,0,0,1,322.729,323.416Z" transform="translate(-34.35 -17.468)"/><path class="f" d="M319.05,324.089a11.33,11.33,0,1,1-11.33-11.339,11.33,11.33,0,0,1,11.33,11.339Z" transform="translate(-34.799 -17.972)"/><path class="f" d="M359.829,359.58V344.929a14.544,14.544,0,1,0-29.079,0V359.58Z" transform="translate(-38.65 -19.908)"/><path class="g" d="M360.7,323.416a15.175,15.175,0,1,1-15.172-15.166A15.175,15.175,0,0,1,360.7,323.416Z" transform="translate(-38.605 -17.468)"/><path class="f" d="M357.028,324.089a11.33,11.33,0,1,1-3.318-8.02,11.339,11.339,0,0,1,3.318,8.02Z" transform="translate(-39.054 -17.972)"/><circle class="h" cx="82.994" cy="82.994" r="82.994" transform="translate(1.083 120.967)"/><path class="f" d="M80.2,238.41v14.651c0,7.991,2.335,11.9,14.535,11.9,11.339,0,14.544-3.862,14.544-11.9V238.41Z" transform="translate(-10.569 -9.64)"/><path class="f" d="M124.26,222.919h14.66c7.991,0,11.889-2.335,11.889-14.535,0-11.339-3.862-14.544-11.889-14.544H124.26Z" transform="translate(-15.507 -4.645)"/><path class="f" d="M65.029,194.35H50.369c-7.991,0-11.889,2.335-11.889,14.535,0,11.33,3.862,14.544,11.889,14.544h14.66Z" transform="translate(-5.893 -4.702)"/><path class="f" d="M108.769,179.168V164.5c0-7.991-2.335-11.889-14.535-11.889-11.339.018-14.544,3.9-14.544,11.889V179.15Z" transform="translate(-10.512 -0.024)"/><path class="g" d="M109.939,142.635A15.175,15.175,0,1,1,94.765,127.46,15.175,15.175,0,0,1,109.939,142.635Z" transform="translate(-10.501 2.795)"/><path class="f" d="M106.268,143.312A11.339,11.339,0,1,1,94.938,132a11.339,11.339,0,0,1,11.33,11.312Z" transform="translate(-10.949 2.286)"/><circle class="e" cx="38.172" cy="38.172" r="38.172" transform="translate(40.678 235.218) rotate(-80.74)"/><circle class="g" cx="32.341" cy="32.341" r="32.341" transform="matrix(0.16, -0.987, 0.987, 0.16, 47.878, 229.969)"/><line class="i" y2="20.422" transform="translate(71.646 159.121)"/><line class="i" y2="20.422" transform="translate(96.508 159.121)"/><path class="g" d="M160.623,223.8a15.175,15.175,0,1,1,15.166-15.172A15.175,15.175,0,0,1,160.623,223.8Z" transform="translate(-17.881 -4.601)"/><path class="f" d="M160.919,220.138a11.339,11.339,0,1,1,11.339-11.33,11.339,11.339,0,0,1-11.339,11.33Z" transform="translate(-18.345 -5.051)"/><line class="i" x1="20.422" transform="translate(108.939 191.974)"/><line class="i" x1="20.422" transform="translate(108.939 216.836)"/><path class="g" d="M79.46,274.475a15.175,15.175,0,1,1,15.175,15.175A15.175,15.175,0,0,1,79.46,274.475Z" transform="translate(-10.486 -11.982)"/><path class="f" d="M84.1,274.772a11.33,11.33,0,1,1,3.309,8.038A11.339,11.339,0,0,1,84.1,274.772Z" transform="translate(-11.006 -12.448)"/><line class="i" y1="20.422" transform="translate(96.508 229.267)"/><line class="i" y1="20.422" transform="translate(71.646 229.267)"/><path class="g" d="M28.785,193.31A15.175,15.175,0,1,1,13.61,208.485,15.175,15.175,0,0,1,28.785,193.31Z" transform="translate(-3.106 -4.586)"/><path class="f" d="M29.459,198A11.33,11.33,0,1,1,18.12,209.33,11.33,11.33,0,0,1,29.459,198Z" transform="translate(-3.611 -5.111)"/><line class="i" x2="20.422" transform="translate(38.793 216.836)"/><line class="i" x2="20.422" transform="translate(38.793 191.974)"/><text class="j" transform="translate(73.653 212.557)"><tspan x="0" y="0">$</tspan></text><path class="k" d="M82.994,0A82.994,82.994,0,1,1,0,82.994,82.994,82.994,0,0,1,82.994,0Z" transform="translate(0 342.788) rotate(-1.146)"/><path class="e" d="M132.809,495.97H52.47V509.5l38.119,7.92Z" transform="translate(-7.461 -38.507)"/><path class="f" d="M90.149,515.22V495.26a19.81,19.81,0,0,0-39.619,0V515.22Z" transform="translate(-7.244 -36.207)"/><path class="g" d="M91.332,465.9A20.671,20.671,0,1,1,70.661,445.23,20.671,20.671,0,0,1,91.332,465.9Z" transform="translate(-7.183 -32.82)"/><path class="f" d="M86.33,466.811A15.45,15.45,0,1,1,70.886,451.37,15.45,15.45,0,0,1,86.33,466.811Z" transform="translate(-7.793 -33.508)"/><path class="f" d="M130.659,492.629V477.97a14.544,14.544,0,0,0-29.079,0v14.66Z" transform="translate(-12.965 -34.9)"/><path class="g" d="M131.529,456.375A15.175,15.175,0,1,1,116.355,441.2,15.175,15.175,0,0,1,131.529,456.375Z" transform="translate(-12.92 -32.368)"/><path class="f" d="M127.858,457.049a11.339,11.339,0,1,1-11.294-11.339,11.339,11.339,0,0,1,11.294,11.339Z" transform="translate(-13.369 -32.874)"/><path class="e" d="M90.817,416.1a14.89,14.89,0,1,0-23.352,7.3l2.38,10.549,8.089-7.459A14.882,14.882,0,0,0,90.817,416.1Z" transform="translate(-8.498 -27.387)"/><path class="e" d="M114.534,408.036a14.89,14.89,0,1,0-16.2,18.318l7.485,7.8,3.072-10.566A14.882,14.882,0,0,0,114.534,408.036Z" transform="translate(-11.127 -27.378)"/><path class="k" d="M82.994,0A82.994,82.994,0,1,1,0,82.994,82.994,82.994,0,0,1,82.994,0Z" transform="translate(170.473 159.495) rotate(-73.92)"/><path class="e" d="M343.025,101.651a7,7,0,1,0-11.152-2.841l-1.643,4.813,5.079-1a7,7,0,0,0,7.716-.968Z" transform="translate(-38.592 7.063)"/><path class="f" d="M275.03,143.861V133.135a10.655,10.655,0,0,0-21.31,0v10.726Z" transform="translate(-30.017 3.353)"/><path class="g" d="M275.676,117.358a11.108,11.108,0,1,1-11.081-11.108,11.108,11.108,0,0,1,11.081,11.108Z" transform="translate(-29.988 5.172)"/><path class="f" d="M272.984,117.852a8.293,8.293,0,1,1-2.426-5.87A8.3,8.3,0,0,1,272.984,117.852Z" transform="translate(-30.315 4.802)"/><path class="f" d="M304.03,143.861V133.135a10.655,10.655,0,1,0-21.31,0v10.726Z" transform="translate(-33.267 3.353)"/><path class="g" d="M304.676,117.358a11.108,11.108,0,1,1-11.081-11.108A11.108,11.108,0,0,1,304.676,117.358Z" transform="translate(-33.238 5.172)"/><path class="f" d="M301.984,117.852a8.293,8.293,0,1,1-2.426-5.87A8.3,8.3,0,0,1,301.984,117.852Z" transform="translate(-33.565 4.802)"/><path class="f" d="M333.03,143.861V133.135a10.655,10.655,0,0,0-21.31,0v10.726Z" transform="translate(-36.517 3.353)"/><path class="g" d="M333.676,117.358a11.108,11.108,0,1,1-11.081-11.108A11.108,11.108,0,0,1,333.676,117.358Z" transform="translate(-36.488 5.172)"/><path class="f" d="M330.984,117.852a8.293,8.293,0,1,1-2.426-5.87,8.3,8.3,0,0,1,2.426,5.87Z" transform="translate(-36.815 4.802)"/><path class="f" d="M362.03,143.861V133.135a10.655,10.655,0,0,0-21.31,0v10.726Z" transform="translate(-39.767 3.353)"/><path class="g" d="M362.676,117.358a11.108,11.108,0,1,1-11.081-11.108,11.108,11.108,0,0,1,11.081,11.108Z" transform="translate(-39.738 5.172)"/><path class="f" d="M359.984,117.852a8.293,8.293,0,1,1-2.426-5.87A8.3,8.3,0,0,1,359.984,117.852Z" transform="translate(-40.066 4.802)"/><path class="f" d="M317.911,63.7V53.046a10.575,10.575,0,1,0-21.141,0V63.7Z" transform="translate(-34.841 12.354)"/><path class="g" d="M318.554,37.417A11.037,11.037,0,1,1,307.517,26.38,11.037,11.037,0,0,1,318.554,37.417Z" transform="translate(-34.809 14.124)"/><path class="f" d="M315.918,37.9a8.231,8.231,0,1,1-2.411-5.829A8.249,8.249,0,0,1,315.918,37.9Z" transform="translate(-35.139 13.756)"/><rect class="f" width="7.991" height="24.862" rx="3.996" transform="translate(261.662 79.208)"/><rect class="f" width="7.991" height="24.862" rx="3.996" transform="translate(274.981 79.208)"/><rect class="f" width="21.31" height="11.543" transform="translate(261.662 77.432)"/><rect class="e" width="30.189" height="4.44" transform="translate(257.222 73.881)"/><circle class="h" cx="82.994" cy="82.994" r="82.994" transform="translate(188.422 414.925) rotate(-1.25)"/><path class="e" d="M275.6,501.68a6.961,6.961,0,1,0-10.433,4.688l1.687,4.768,3.339-3.916a6.988,6.988,0,0,0,5.408-5.541Z" transform="translate(-30.921 -38.223)"/><path class="e" d="M316.365,501.68a6.961,6.961,0,1,1,10.433,4.688l-1.687,4.768-3.339-3.88A6.979,6.979,0,0,1,316.365,501.68Z" transform="translate(-37.025 -38.223)"/><path class="e" d="M346.988,499.267a6.961,6.961,0,1,1,8.178,7.991l-3.223,3.889-1.776-4.821a6.943,6.943,0,0,1-3.179-7.059Z" transform="translate(-40.459 -38.226)"/><path class="e" d="M302.962,499.93a6.961,6.961,0,1,0-9.4,6.508l2.522,4.377,2.575-4.44A6.943,6.943,0,0,0,302.962,499.93Z" transform="translate(-33.975 -38.169)"/><path class="f" d="M274.831,551.792V541.136a10.575,10.575,0,1,0-21.141,0v10.655Z" transform="translate(-30.013 -42.349)"/><path class="g" d="M275.464,525.5a11.037,11.037,0,1,1-11.028-11.028A11.037,11.037,0,0,1,275.464,525.5Z" transform="translate(-29.98 -40.58)"/><path class="f" d="M272.8,525.959a8.249,8.249,0,1,1-8.24-8.249A8.249,8.249,0,0,1,272.8,525.959Z" transform="translate(-30.306 -40.943)"/><rect class="f" width="7.991" height="24.862" rx="3.996" transform="translate(223.481 512.514)"/><rect class="f" width="7.991" height="24.862" rx="3.996" transform="translate(236.8 512.514)"/><rect class="f" width="21.31" height="11.543" transform="translate(223.481 510.738)"/><path class="f" d="M304.831,551.792V541.136a10.575,10.575,0,1,0-21.141,0v10.655Z" transform="translate(-33.375 -42.349)"/><path class="g" d="M305.464,525.5a11.037,11.037,0,1,1-11.028-11.028A11.037,11.037,0,0,1,305.464,525.5Z" transform="translate(-33.342 -40.58)"/><path class="f" d="M302.8,525.959a8.249,8.249,0,1,1-8.24-8.249A8.249,8.249,0,0,1,302.8,525.959Z" transform="translate(-33.668 -40.943)"/><rect class="f" width="7.991" height="24.862" rx="3.996" transform="translate(250.119 512.514)"/><rect class="f" width="7.991" height="24.862" rx="3.996" transform="translate(263.438 512.514)"/><rect class="f" width="21.31" height="11.543" transform="translate(250.119 510.738)"/><path class="f" d="M333.831,551.792V541.136a10.575,10.575,0,1,0-21.141,0v10.655Z" transform="translate(-36.625 -42.349)"/><path class="g" d="M334.464,525.5a11.037,11.037,0,1,1-11.028-11.028A11.037,11.037,0,0,1,334.464,525.5Z" transform="translate(-36.592 -40.58)"/><path class="f" d="M331.8,525.959a8.249,8.249,0,1,1-8.24-8.249A8.249,8.249,0,0,1,331.8,525.959Z" transform="translate(-36.918 -40.943)"/><rect class="f" width="7.991" height="24.862" rx="3.996" transform="translate(275.869 512.514)"/><rect class="f" width="7.991" height="24.862" rx="3.996" transform="translate(289.188 512.514)"/><rect class="f" width="21.31" height="11.543" transform="translate(275.869 510.738)"/><path class="f" d="M363.831,551.792V541.136a10.575,10.575,0,1,0-21.141,0v10.655Z" transform="translate(-39.988 -42.349)"/><path class="g" d="M364.464,525.5a11.037,11.037,0,1,1-11.028-11.028A11.037,11.037,0,0,1,364.464,525.5Z" transform="translate(-39.955 -40.58)"/><path class="f" d="M361.8,525.959a8.249,8.249,0,1,1-8.24-8.249A8.249,8.249,0,0,1,361.8,525.959Z" transform="translate(-40.281 -40.943)"/><rect class="f" width="7.991" height="24.862" rx="3.996" transform="translate(302.506 512.514)"/><rect class="f" width="7.991" height="24.862" rx="3.996" transform="translate(315.825 512.514)"/><rect class="f" width="21.31" height="11.543" transform="translate(302.506 510.738)"/><rect class="e" width="122.533" height="5.328" transform="translate(211.938 507.187)"/><circle class="h" cx="82.994" cy="82.994" r="82.994" transform="matrix(0.911, -0.412, 0.412, 0.911, 366.704, 148.403)"/><path class="e" d="M538.167,166.67a13.94,13.94,0,1,0-22.145-5.9l-3.392,9.545,10.131-1.865A13.931,13.931,0,0,0,538.167,166.67Z" transform="translate(-59.035 1.153)"/><path class="e" d="M535.888,166.667a13.949,13.949,0,1,1,22.145-5.9l3.4,9.545-10.14-1.865A13.931,13.931,0,0,1,535.888,166.667Z" transform="translate(-61.09 1.156)"/><path class="f" d="M521.06,212.69V202.035a10.575,10.575,0,0,0-21.15,0V212.69Z" transform="translate(-57.609 -4.378)"/><path class="g" d="M521.614,186.367A11.037,11.037,0,1,1,510.6,175.33a11.037,11.037,0,0,1,11.01,11.037Z" transform="translate(-57.568 -2.57)"/><path class="f" d="M518.918,186.85a8.249,8.249,0,1,1-8.24-8.24,8.249,8.249,0,0,1,8.24,8.24Z" transform="translate(-57.89 -2.938)"/><path class="f" d="M507.461,239.792a4.111,4.111,0,0,1-4.04,4.04h-.089a3.96,3.96,0,0,1-3.862-4.04V222.832a3.8,3.8,0,0,1,3.862-3.862h.089a3.951,3.951,0,0,1,4.04,3.862Z" transform="translate(-57.56 -7.461)"/><path class="f" d="M522.461,239.792a4.111,4.111,0,0,1-4.04,4.04h-.089a3.96,3.96,0,0,1-3.862-4.04V222.832a3.8,3.8,0,0,1,3.862-3.862h.089a3.951,3.951,0,0,1,4.04,3.862Z" transform="translate(-59.241 -7.461)"/><rect class="f" width="21.31" height="11.543" transform="translate(441.91 209.733)"/><path class="f" d="M574.06,212.69V202.035a10.575,10.575,0,0,0-21.15,0V212.69Z" transform="translate(-63.549 -4.378)"/><path class="g" d="M574.614,186.367A11.037,11.037,0,1,1,563.6,175.33a11.037,11.037,0,0,1,11.01,11.037Z" transform="translate(-63.508 -2.57)"/><path class="f" d="M571.918,186.85a8.249,8.249,0,1,1-8.24-8.24,8.249,8.249,0,0,1,8.24,8.24Z" transform="translate(-63.83 -2.938)"/><path class="f" d="M560.461,239.792a4.111,4.111,0,0,1-4.04,4.04h-.089a3.96,3.96,0,0,1-3.862-4.04V222.832a3.8,3.8,0,0,1,3.862-3.862h.089a3.951,3.951,0,0,1,4.04,3.862Z" transform="translate(-63.5 -7.461)"/><path class="f" d="M575.461,239.792a4.111,4.111,0,0,1-4.04,4.04h-.089a3.96,3.96,0,0,1-3.862-4.04V222.832a3.8,3.8,0,0,1,3.862-3.862h.089a3.951,3.951,0,0,1,4.04,3.862Z" transform="translate(-65.181 -7.461)"/><rect class="f" width="21.31" height="11.543" transform="translate(488.97 209.733)"/><rect class="f" width="26.638" height="6.215" rx="3.108" transform="translate(454.341 199.078)"/><rect class="f" width="26.638" height="6.215" rx="3.108" transform="translate(468.548 199.078)"/><path class="k" d="M82.994,0A82.994,82.994,0,1,1,0,82.994,82.994,82.994,0,0,1,82.994,0Z" transform="translate(359.173 424.167) rotate(-45)"/><rect class="f" width="63.043" height="55.939" transform="translate(457.893 374.886)"/><rect class="g" width="59.491" height="45.284" transform="translate(459.669 380.214)"/><path class="f" d="M534.994,511.639v-9.421a9.341,9.341,0,1,0-18.646,0v9.421Z" transform="translate(-59.449 -38.096)"/><path class="g" d="M535.534,488.437a9.767,9.767,0,1,1-9.767-9.767,9.767,9.767,0,0,1,9.767,9.767Z" transform="translate(-59.412 -36.568)"/><path class="f" d="M533.162,488.871a7.281,7.281,0,1,1-7.281-7.281A7.281,7.281,0,0,1,533.162,488.871Z" transform="translate(-59.704 -36.895)"/><path class="f" d="M560.454,511.639v-9.421a9.341,9.341,0,1,0-18.646,0v9.421Z" transform="translate(-62.303 -38.096)"/><path class="g" d="M561.014,488.437a9.767,9.767,0,1,1-9.767-9.767,9.767,9.767,0,0,1,9.767,9.767Z" transform="translate(-62.268 -36.568)"/><path class="f" d="M558.652,488.871a7.281,7.281,0,1,1-7.281-7.281A7.281,7.281,0,0,1,558.652,488.871Z" transform="translate(-62.561 -36.895)"/><path class="f" d="M585.916,511.8v-9.421a9.35,9.35,0,0,0-18.646,0V511.8Z" transform="translate(-65.159 -38.256)"/><path class="g" d="M586.464,488.437a9.767,9.767,0,1,1-9.767-9.767A9.767,9.767,0,0,1,586.464,488.437Z" transform="translate(-65.12 -36.568)"/><path class="f" d="M584.16,488.871a7.29,7.29,0,1,1-7.281-7.281A7.29,7.29,0,0,1,584.16,488.871Z" transform="translate(-65.418 -36.895)"/><rect class="f" width="4.44" height="10.655" transform="translate(487.194 428.162)"/><rect class="f" width="4.44" height="10.655" transform="translate(487.194 428.162)"/><rect class="f" width="4.44" height="10.655" transform="translate(487.194 428.162)"/><rect class="f" width="4.44" height="10.655" transform="translate(487.194 428.162)"/><rect class="f" width="4.44" height="10.655" transform="translate(487.194 428.162)"/><rect class="e" width="7.103" height="33.741" transform="translate(467.66 391.757)"/><path class="e" d="M531.711,413.09l-5.061,8.773h10.122l-5.061-8.773-5.061,8.773h10.122Z" transform="translate(-60.606 -29.218)"/><path class="f" d="M509.2,456.509V445.641a10.46,10.46,0,1,0-20.911,0v10.877Z" transform="translate(-56.306 -31.66)"/><ellipse class="g" cx="10.913" cy="11.268" rx="10.913" ry="11.268" transform="translate(431.726 388.551)"/><path class="f" d="M507.183,430.117a8.151,8.151,0,1,1-8.151-8.418A8.284,8.284,0,0,1,507.183,430.117Z" transform="translate(-56.598 -30.183)"/><path class="f" d="M496.46,484.138c0,2.229-2.1,4.582-4.262,4.582h-.08c-2.167,0-3.649-2.353-3.649-4.582V466.832a3.614,3.614,0,0,1,3.649-3.862h.08a4.138,4.138,0,0,1,4.262,3.862Z" transform="translate(-56.326 -34.808)"/><path class="f" d="M511.458,484.138a4.934,4.934,0,0,1-4.44,4.582h-.08c-2.158,0-3.5-2.353-3.5-4.582V466.832c0-2.229,1.341-3.862,3.5-3.862h.08c2.158,0,4.44,1.634,4.44,3.862Z" transform="translate(-58.005 -34.808)"/><rect class="f" width="21.31" height="11.543" transform="translate(432.143 426.386)"/><path class="f" d="M529.105,451.787c0,1.7-2.051,3.4-3.7,3.4H505.06c-1.652,0-2.593-1.7-2.593-3.4v-.124A2.38,2.38,0,0,1,505.06,449H525.4c1.651,0,3.7.95,3.7,2.664Z" transform="translate(-57.894 -33.241)"/><rect class="f" width="4.44" height="10.655" transform="translate(487.194 428.162)"/><rect class="e" width="7.103" height="21.31" transform="translate(504.953 404.188)"/><path class="e" d="M573.711,427.09l-5.061,8.773h10.122l-5.061-8.773-5.061,8.773h10.122Z" transform="translate(-65.313 -30.787)"/><rect class="e" width="7.103" height="24.862" transform="translate(492.522 400.636)"/><path class="e" d="M559.711,423.09l-5.061,8.773h10.122l-5.061-8.773-5.061,8.773h10.122Z" transform="translate(-63.744 -30.339)"/><rect class="e" width="7.103" height="33.741" transform="translate(480.091 391.757)"/><path class="e" d="M545.711,413.09l-5.061,8.773h10.122l-5.061-8.773-5.061,8.773h10.122Z" transform="translate(-62.175 -29.218)"/><rect class="f" width="4.44" height="10.655" transform="translate(487.194 428.162)"/><rect class="f" width="24.862" height="4.44" transform="translate(476.539 434.377)"/><rect class="f" width="4.44" height="10.655" transform="translate(487.194 428.162)"/></g></g></g></svg>