<svg xmlns="http://www.w3.org/2000/svg" viewBox="0 0 90.51 90.51"><defs><style>.cls-1{fill:#ff4165;}.cls-2{fill:none;stroke:#ff4165;stroke-miterlimit:10;stroke-width:2px;}</style></defs><title>logo c</title><g id="Layer_2" data-name="Layer 2"><g id="Layer_1-2" data-name="Layer 1"><path class="cls-1" d="M77.81,38.17,58.07,57.92a4,4,0,0,1-5.59,0L40.63,46.07a3.95,3.95,0,1,1,5.59-5.58l9.05,9,17-16.95a3.95,3.95,0,1,1,5.58,5.58Z"/><path class="cls-1" d="M65.3,27.78c-4.93-6-10.61-8.51-17.62-8.51-15.68,0-23.6,11.65-23.6,26s9.41,26,23.6,26c7.61,0,13.43-2.69,17.77-8.66l8.66,8.21C67.39,78.55,57.83,82,47.68,82,26,82,11.54,66.76,11.54,45.26c0-21.21,14.63-36.74,36.14-36.74C58,8.52,67.54,12,74.55,19.57Z"/><rect class="cls-2" x="1" y="1" width="88.51" height="88.51"/></g></g></svg>