<svg xmlns="http://www.w3.org/2000/svg" viewBox="0 0 749.03 602.34"><defs><style>.cls-1{fill:#cfd1d2;}.cls-2{fill:#59595b;}.cls-3{fill:#e5e5e6;}.cls-4{fill:#919395;}.cls-5{fill:#d3616a;}.cls-6{fill:#b5495b;}.cls-7{fill:#fff;}.cls-8{fill:#f0f1f1;}.cls-9{fill:#4674b7;}</style></defs><title>Reminder</title><g id="Layer_2" data-name="Layer 2"><g id="Objects"><rect class="cls-1" x="327.58" y="162.18" width="56.98" height="23.98" transform="translate(105.75 481.51) rotate(-76.9)"/><path class="cls-1" d="M326.24,121.52h0a16,16,0,0,1,19.25-12l48.59,11.31a16,16,0,0,1,12,19.25h0a16,16,0,0,1-19.25,12l-48.58-11.3A16,16,0,0,1,326.24,121.52Z"/><polygon class="cls-2" points="326.5 602.34 304.23 600.02 343.85 219.62 584.88 517.56 567.48 531.64 360.5 275.81 326.5 602.34"/><rect class="cls-3" x="298.65" y="155.78" width="23.99" height="56.97" transform="matrix(0.62, -0.78, 0.78, 0.62, -26.93, 312.69)"/><path class="cls-3" d="M250.3,188.62h0a16,16,0,0,1-2.56-22.53l31.06-39a16,16,0,0,1,22.52-2.57h0A16,16,0,0,1,303.89,147l-31.06,39.05A16,16,0,0,1,250.3,188.62Z"/><rect class="cls-4" x="319.49" y="140.48" width="23.98" height="65.88" transform="translate(-35.43 100.41) rotate(-16.36)"/><path class="cls-4" d="M280,143.49h0a16,16,0,0,1,10.87-19.9l47.86-14a16,16,0,0,1,19.9,10.87h0a16,16,0,0,1-10.87,19.9L299.9,154.36A16,16,0,0,1,280,143.49Z"/><ellipse class="cls-5" cx="389.1" cy="369.77" rx="194.37" ry="194.42"/><ellipse class="cls-6" cx="389.1" cy="369.77" rx="194.37" ry="194.42"/><ellipse class="cls-5" cx="389.1" cy="369.77" rx="185.64" ry="185.69"/><path class="cls-7" d="M476.86,242a155,155,0,1,0,60.94,84.1A154.67,154.67,0,0,0,476.86,242Z"/><path class="cls-8" d="M476.86,242a155,155,0,0,1-198,236.69A155,155,0,1,0,476.86,242Z"/><path class="cls-6" d="M570.71,227.56c23.87-42.5,8.51-96.46-34.32-120.53s-96.89-9.12-120.76,33.38Z"/><path class="cls-5" d="M548.86,214.17c20.57-36.62,7.33-83.12-29.57-103.85s-83.48-7.87-104,28.75Z"/><path class="cls-6" d="M157.36,350c-43.05-22.86-59.29-76.56-36.26-120S197.69,170,240.74,192.8Z"/><path class="cls-5" d="M168.84,328.32c-37.12-19.71-51.12-66-31.26-103.44s66-51.79,103.16-32.08Z"/><polygon class="cls-2" points="380.67 383.92 351.19 283.46 372.67 277.16 395.85 356.13 459.12 337.55 465.42 359.03 380.67 383.92"/><ellipse class="cls-5" cx="389.2" cy="369.75" rx="21.44" ry="21.45" transform="translate(-0.53 0.56) rotate(-0.08)"/><path class="cls-2" d="M280.12,401.77a11,11,0,1,1-13.65-7.46A11,11,0,0,1,280.12,401.77Z"/><circle class="cls-2" cx="512.79" cy="333.46" r="11" transform="translate(176.45 844.37) rotate(-89.68)"/><path class="cls-2" d="M358.58,258.08A11,11,0,1,1,366,244.42,11,11,0,0,1,358.58,258.08Z"/><path class="cls-2" d="M430,501.36a11,11,0,1,1,7.46-13.65A11,11,0,0,1,430,501.36Z"/><path class="cls-1" d="M578.13,256.21a104,104,0,0,1,8.49,10.35c2.65,3.59,5.1,7.32,7.46,11.13a197,197,0,0,1,12.4,23.82,201.6,201.6,0,0,1,9.11,25.41c.61,2.18,1.21,4.35,1.74,6.55l1.53,6.61c.85,4.45,1.69,8.9,2.27,13.4l.44,3.38c.14,1.12.22,2.26.33,3.39.18,2.26.45,4.52.56,6.79l.24,6.81c.07,2.27,0,4.55,0,6.82a149.19,149.19,0,0,1-3,27.08l-.67,3.34c-.21,1.11-.56,2.2-.83,3.3-.58,2.19-1.15,4.38-1.77,6.56s-1.43,4.29-2.17,6.42l-1.14,3.19-1.31,3.12c-.91,2.07-1.76,4.14-2.71,6.18s-2.06,4-3.13,6c-.54,1-1,2-1.61,2.94l-1.79,2.84c-1.24,1.87-2.42,3.75-3.7,5.57.49-2.19,1.09-4.32,1.63-6.46l.86-3.18.73-3.21c.47-2.14,1-4.25,1.48-6.36l1.21-6.39.63-3.16.47-3.2,1-6.35c.39-4.27,1-8.47,1.23-12.73.38-4.23.45-8.47.61-12.7.07-2.11,0-4.24,0-6.35v-3.17l-.14-3.17c-.14-2.11-.11-4.22-.28-6.33l-.47-6.33c-.16-2.1-.42-4.21-.62-6.31-.12-1-.2-2.11-.35-3.16l-.44-3.14c-.48-4.21-1.25-8.39-1.94-12.58l-1.18-6.26-1.33-6.25c-1.84-8.32-4-16.61-6.41-24.86A519.21,519.21,0,0,0,578.13,256.21Z"/><path class="cls-1" d="M631.25,271.36a64.06,64.06,0,0,1,6.51,7c2,2.45,3.89,5,5.68,7.65a123.79,123.79,0,0,1,9.38,16.62,128.36,128.36,0,0,1,6.81,17.94,120.84,120.84,0,0,1,4,18.9,111.17,111.17,0,0,1,1,19.4,98.65,98.65,0,0,1-2.49,19.28c-.34,1.58-.71,3.16-1.2,4.71s-.91,3.1-1.4,4.63-1.12,3-1.71,4.53l-.9,2.24-1,2.19c-.72,1.44-1.38,2.89-2.13,4.31s-1.6,2.78-2.45,4.13c-.42.68-.8,1.37-1.25,2l-1.41,2c-1,1.28-1.89,2.55-2.91,3.78,1.06-6.32,2.43-12.26,3.12-18.31l.34-2.23.23-2.25.5-4.45c.16-3,.52-5.92.55-8.88a175.08,175.08,0,0,0,0-17.6c-.24-5.84-.84-11.67-1.61-17.48a281.49,281.49,0,0,0-7.07-34.81C638.79,295,635.16,283.41,631.25,271.36Z"/><path class="cls-1" d="M162,378.39a518.94,518.94,0,0,0,12,50.87c2.43,8.25,5.09,16.39,8,24.38l2.26,6,2.39,5.91c1.68,3.9,3.29,7.83,5.16,11.62l1.33,2.89c.44,1,.94,1.89,1.41,2.84,1,1.88,1.88,3.8,2.89,5.65l3,5.58c1,1.87,2.16,3.63,3.19,5.48l1.59,2.74L207,505c1.17,1.75,2.23,3.6,3.43,5.34,2.42,3.47,4.77,7,7.38,10.36s5.27,6.66,7.91,10l4.25,4.81L232.1,538l2.24,2.32,4.47,4.72c1.55,1.51,3.13,3,4.68,4.55l2.35,2.31,2.44,2.2c1.61,1.52,3.26,3,4.87,4.56-2.06-.84-4.07-1.78-6.13-2.68l-3-1.42c-1-.5-2-1.07-2.94-1.61-2-1.07-3.9-2.21-5.86-3.33s-3.73-2.48-5.62-3.73L226.77,544l-2.67-2.06q-2.67-2.08-5.31-4.23c-1.69-1.5-3.36-3-5-4.56-.82-.78-1.7-1.51-2.48-2.33l-2.37-2.45a149.12,149.12,0,0,1-17.15-21.16c-1.27-1.89-2.55-3.77-3.72-5.72l-3.48-5.86c-1.13-2-2.13-4-3.2-6-.52-1-1.07-2-1.56-3l-1.45-3.07c-1.94-4.11-3.64-8.31-5.32-12.51l-2.3-6.39c-.74-2.13-1.41-4.29-2.07-6.45a200.68,200.68,0,0,1-6.06-26.3,197.15,197.15,0,0,1-2.44-26.75c-.07-4.47,0-8.94.26-13.39A107.9,107.9,0,0,1,162,378.39Z"/><path class="cls-1" d="M125.46,419.86c3.23,12.25,6.43,23.95,10.16,35.38a284.58,284.58,0,0,0,12.86,33.11c2.5,5.3,5.14,10.53,8.1,15.57a175.5,175.5,0,0,0,9.47,14.84c1.63,2.47,3.51,4.74,5.26,7.17l2.83,3.47,1.41,1.77,1.49,1.7c3.85,4.7,8.21,9,12.51,13.71-1.51-.48-3-1-4.49-1.6l-2.23-.89c-.74-.31-1.43-.68-2.15-1-1.44-.69-2.86-1.43-4.29-2.16s-2.74-1.65-4.12-2.48l-2.05-1.28-2-1.4c-1.31-.94-2.59-1.91-3.89-2.89s-2.46-2.08-3.68-3.14-2.42-2.16-3.56-3.31a99.42,99.42,0,0,1-12.51-14.88A110.1,110.1,0,0,1,135,494.67a126.91,126.91,0,0,1-11.86-55.91c.09-3.18.27-6.35.65-9.51A64.24,64.24,0,0,1,125.46,419.86Z"/><polygon class="cls-9" points="395.83 0 396.48 61.78 412.94 51.46 425.04 90.1 425.82 28.28 408.21 39.08 395.83 0"/><polygon class="cls-9" points="507.87 6.88 459.68 45.53 477.96 52.12 455.04 85.49 504.14 47.94 484.78 40.75 507.87 6.88"/><polygon class="cls-9" points="105.82 137.63 155.62 174.19 157.24 154.83 195.41 168.33 146.44 130.6 144.5 151.18 105.82 137.63"/><polygon class="cls-9" points="178.55 52.12 180.55 113.87 196.78 103.19 209.73 141.56 209.16 79.73 191.78 90.92 178.55 52.12"/><polygon class="cls-9" points="677.91 117.18 633.05 159.65 651.81 164.71 631.71 199.86 677.57 158.41 657.67 152.82 677.91 117.18"/><polygon class="cls-9" points="749.03 204.04 687.94 194.97 695.54 212.85 655.49 218.74 716.4 229.22 708.51 210.13 749.03 204.04"/><polygon class="cls-9" points="12.91 312.43 73.59 323.91 60.55 338.31 96.45 357.01 35.47 346.93 49.19 331.48 12.91 312.43"/><polygon class="cls-9" points="0 423.95 46.5 383.3 49.77 402.45 86.65 385.75 41.06 427.5 37.38 407.17 0 423.95"/></g></g></svg>